<svg xmlns="http://www.w3.org/2000/svg" viewBox="0 0 1920 1080">
  <!-- Background -->
  <rect width="1920" height="1080" fill="#0F172A"/>
  
  <!-- Circuit-board style grid -->
  <pattern id="grid" width="50" height="50" patternUnits="userSpaceOnUse">
    <path d="M 50 0 L 0 0 0 50" fill="none" stroke="#1E293B" stroke-width="1"/>
    <circle cx="0" cy="0" r="2" fill="#1E293B"/>
  </pattern>
  <rect width="1920" height="1080" fill="url(#grid)"/>

  <!-- Ethereum Node Section (Left) -->
  <g transform="translate(150, 250)">
    <!-- Geth Node -->
    <rect width="250" height="200" fill="#312E81" rx="15" filter="drop-shadow(0 4px 6px rgba(0, 0, 0, 0.3))"/>
    <text x="125" y="50" font-family="Arial, sans-serif" font-size="24" fill="white" text-anchor="middle" font-weight="bold">Geth</text>
    <text x="125" y="80" font-family="Arial, sans-serif" font-size="14" fill="#A5B4FC" text-anchor="middle">Archive Node</text>
    <path d="M 85 100 L 165 100 L 125 160 Z" fill="#6366F1"/>
    <text x="125" y="190" font-family="Arial, sans-serif" font-size="12" fill="#A5B4FC" text-anchor="middle">Port: 8545, 8546, 8551</text>
    
    <!-- Prysm Node -->
    <rect y="250" width="250" height="200" rx="15" fill="#1E3A8A" filter="drop-shadow(0 4px 6px rgba(0, 0, 0, 0.3))"/>
    <text x="125" y="300" font-family="Arial, sans-serif" font-size="24" fill="white" text-anchor="middle" font-weight="bold">Prysm</text>
    <text x="125" y="330" font-family="Arial, sans-serif" font-size="14" fill="#93C5FD" text-anchor="middle">Beacon Chain</text>
    <circle cx="125" cy="380" r="30" fill="#3B82F6"/>
    <text x="125" y="430" font-family="Arial, sans-serif" font-size="12" fill="#93C5FD" text-anchor="middle">Port: 4000, 3500</text>
  </g>

  <!-- Data Processing Section (Center) -->
  <g transform="translate(1050, 250)">
    <!-- Kafka -->
    <rect width="300" height="200" fill="#713F12" rx="15" filter="drop-shadow(0 4px 6px rgba(0, 0, 0, 0.3))"/>
    <text x="150" y="50" font-family="Arial, sans-serif" font-size="24" fill="white" text-anchor="middle" font-weight="bold">Kafka + Zookeeper</text>
    <text x="150" y="80" font-family="Arial, sans-serif" font-size="14" fill="#FEF08A" text-anchor="middle">Stream Processing</text>
    <rect x="75" y="100" width="150" height="60" fill="#854D0E" rx="8"/>
    <text x="150" y="135" font-family="Arial, sans-serif" font-size="14" fill="#FEF08A" text-anchor="middle">blocks, transactions</text>
    <text x="150" y="180" font-family="Arial, sans-serif" font-size="12" fill="#FEF08A" text-anchor="middle">Port: 9092, 2181</text>
    
    <!-- TimescaleDB -->
    <g transform="translate(0, 250)">
      <rect width="300" height="200" fill="#164E63" rx="15" filter="drop-shadow(0 4px 6px rgba(0, 0, 0, 0.3))"/>
      <text x="150" y="50" font-family="Arial, sans-serif" font-size="24" fill="white" text-anchor="middle" font-weight="bold">TimescaleDB</text>
      <text x="150" y="80" font-family="Arial, sans-serif" font-size="14" fill="#67E8F9" text-anchor="middle">SourceDB</text>
      <g transform="translate(75, 100)">
        <rect width="150" height="15" fill="#0E7490" rx="2"/>
        <rect y="20" width="150" height="15" fill="#0E7490" rx="2"/>
        <rect y="40" width="150" height="15" fill="#0E7490" rx="2"/>
      </g>
      <text x="150" y="180" font-family="Arial, sans-serif" font-size="12" fill="#67E8F9" text-anchor="middle">Port: 5432</text>
    </g>
  <g transform="translate(0, 500)">
      <rect width="300" height="200" fill="#164E63" rx="15" filter="drop-shadow(0 4px 6px rgba(0, 0, 0, 0.3))"/>
      <text x="150" y="50" font-family="Arial, sans-serif" font-size="24" fill="white" text-anchor="middle" font-weight="bold">TimescaleDB</text>
      <text x="150" y="80" font-family="Arial, sans-serif" font-size="14" fill="#67E8F9" text-anchor="middle">DestinationDB</text>
      <g transform="translate(75, 100)">
        <rect width="150" height="15" fill="#0E7490" rx="2"/>
        <rect y="20" width="150" height="15" fill="#0E7490" rx="2"/>
        <rect y="40" width="150" height="15" fill="#0E7490" rx="2"/>
      </g>
      <text x="150" y="180" font-family="Arial, sans-serif" font-size="12" fill="#67E8F9" text-anchor="middle">Port: 5433</text>
    </g></g>

  <!-- Connectors Section -->
  <g transform="translate(600, 250)">
    <rect width="250" height="450" fill="#1F2937" rx="15" filter="drop-shadow(0 4px 6px rgba(0, 0, 0, 0.3))"/>
    <text x="125" y="50" font-family="Arial, sans-serif" font-size="24" fill="white" text-anchor="middle" font-weight="bold">Connectors</text>
    <g transform="translate(25, 80)">
      <rect width="200" height="80" fill="#374151" rx="8"/>
      <text x="100" y="35" font-family="Arial, sans-serif" font-size="16" fill="white" text-anchor="middle">Connector 1</text>
      <text x="100" y="55" font-family="Arial, sans-serif" font-size="12" fill="#9CA3AF" text-anchor="middle">DB → DB</text>
    </g>
    <g transform="translate(25, 180)">
      <rect width="200" height="80" fill="#374151" rx="8"/>
      <text x="100" y="35" font-family="Arial, sans-serif" font-size="16" fill="white" text-anchor="middle">Connector 2</text>
      <text x="100" y="55" font-family="Arial, sans-serif" font-size="12" fill="#9CA3AF" text-anchor="middle">DB → Kafka</text>
    </g>
    <text x="125" y="430" font-family="Arial, sans-serif" font-size="12" fill="#9CA3AF" text-anchor="middle">Port: 8081, 8082</text>
  </g>

  <!-- Management UI Section -->
  <g transform="translate(1450, 250)">
    <rect width="300" height="450" fill="#1A1A1A" rx="15" filter="drop-shadow(0 4px 6px rgba(0, 0, 0, 0.3))"/>
    <text x="150" y="50" font-family="Arial, sans-serif" font-size="24" fill="white" text-anchor="middle" font-weight="bold">Management</text>
    
    <!-- Kafka UI -->
    <g transform="translate(50, 80)">
      <rect width="200" height="100" fill="#2D2D2D" rx="8"/>
      <text x="100" y="40" font-family="Arial, sans-serif" font-size="16" fill="white" text-anchor="middle">Kafka UI</text>
      <text x="100" y="70" font-family="Arial, sans-serif" font-size="12" fill="#A3A3A3" text-anchor="middle">Port: 8080</text>
    </g>
    
    <!-- Adminer -->
    <g transform="translate(50, 200)">
      <rect width="200" height="100" fill="#2D2D2D" rx="8"/>
      <text x="100" y="40" font-family="Arial, sans-serif" font-size="16" fill="white" text-anchor="middle">Adminer</text>
      <text x="100" y="70" font-family="Arial, sans-serif" font-size="12" fill="#A3A3A3" text-anchor="middle">Port: 8880</text>
    </g>
  </g>

  <!-- Connection Lines with right angles -->
  <g fill="none" stroke-width="3">
    <!-- Geth to Kafka -->
    <path d="M 400 350 L 500 350 L 500 350 L 625 350" stroke="#6366F1" stroke-dasharray="5,5">
      <animate attributeName="stroke-dashoffset" values="10;0" dur="1s" repeatCount="indefinite"/>
    </path>
    
    <path d="M 400 400 L 500 400 L 500 475 L 625 475" stroke="#6366F1" stroke-dasharray="5,5">
      <animate attributeName="stroke-dashoffset" values="10;0" dur="1s" repeatCount="indefinite"/>
    </path><!-- Prysm to geth -->
    <path d="M 275 500 L 275 450" stroke="#3B82F6" stroke-dasharray="5,5">
      <animate attributeName="stroke-dashoffset" values="10;0" dur="1s" repeatCount="indefinite"/>
    </path>
    
    <!-- Kafka to TimescaleDB -->
    <path d="M 825 400 L 950 400 L 1050 400" stroke="#FEF08A" stroke-dasharray="5,5" class="">
      <animate attributeName="stroke-dashoffset" values="10;0" dur="1s" repeatCount="indefinite"/>
    </path>
    
    <path d="M 1350 400 L 1500 400" stroke="#FEF08A" stroke-dasharray="5,5" class="">
      <animate attributeName="stroke-dashoffset" values="10;0" dur="1s" repeatCount="indefinite"/>
    </path><!-- TimescaleDB to Connectors -->
    
  <path d="M 825 350 L 1000 350 L 1000 575 L 1050 575" stroke="#67E8F9" stroke-dasharray="5,5">
      <animate attributeName="stroke-dashoffset" values="10;0" dur="1s" repeatCount="indefinite"/>
    </path><path d="M 1350 850 L 1425 850 L 1425 525 L 1500 525" stroke="#A64553" stroke-dasharray="5,5">
      <animate attributeName="stroke-dashoffset" values="10;0" dur="1s" repeatCount="indefinite"/>
    </path><path d="M 1350 600 L 1375 600 L 1375 475 L 1500 475" stroke="#67E8F9" stroke-dasharray="5,5">
      <animate attributeName="stroke-dashoffset" values="10;0" dur="1s" repeatCount="indefinite"/>
    </path><path d="M 825 450 L 950 450 L 950 625 L 1050 625" stroke="#67E8F9" stroke-dasharray="5,5">
      <animate attributeName="stroke-dashoffset" values="10;0" dur="1s" repeatCount="indefinite"/>
    </path><path d="M 825 500 L 900 500 L 900 800 L 1050 800" stroke="#A64553" stroke-dasharray="5,5">
      <animate attributeName="stroke-dashoffset" values="10;0" dur="1s" repeatCount="indefinite"/>
    </path></g>

  <!-- Title -->
  <g transform="translate(960, 150)">
    <text font-family="Arial, sans-serif" font-size="72" fill="white" text-anchor="middle" font-weight="bold">BlockBlock</text>
    <text font-family="Arial, sans-serif" font-size="32" fill="#6366F1" text-anchor="middle" y="50">Ethereum Explorer</text>
  </g>

  <!-- Decorative hexagons -->
  <g opacity="0.1">
    <path d="M 100 100 L 130 70 L 170 70 L 200 100 L 170 130 L 130 130 Z" fill="#6366F1"/>
    <path d="M 1720 880 L 1750 850 L 1790 850 L 1820 880 L 1790 910 L 1750 910 Z" fill="#6366F1"/>
    <path d="M 150 880 L 180 850 L 220 850 L 250 880 L 220 910 L 180 910 Z" fill="#6366F1"/>
    <path d="M 1720 100 L 1750 70 L 1790 70 L 1820 100 L 1790 130 L 1750 130 Z" fill="#6366F1"/>
  </g>
</svg>